<svg width="168" height="53" viewBox="0 0 168 53" fill="none" xmlns="http://www.w3.org/2000/svg">
<path d="M88.7014 13.1006C88.7014 14.9796 87.1938 16.4932 85.3223 16.4932C83.4508 16.4932 81.9432 14.9796 81.9432 13.1006C81.9432 11.2216 83.3988 9.70803 85.3223 9.70803C87.2458 9.76022 88.7014 11.2738 88.7014 13.1006ZM74.769 19.938C74.769 20.2512 74.769 20.7731 74.769 20.7731C74.769 20.7731 73.1574 18.6853 69.7263 18.6853C64.0598 18.6853 59.6409 23.0174 59.6409 29.0197C59.6409 34.9698 64.0078 39.354 69.7263 39.354C73.2094 39.354 74.769 37.2141 74.769 37.2141V38.1014C74.769 38.5189 75.0809 38.8321 75.4968 38.8321H79.7077V19.2073C79.7077 19.2073 75.8607 19.2073 75.4968 19.2073C75.0809 19.2073 74.769 19.5726 74.769 19.938ZM74.769 32.5167C73.9892 33.6649 72.4296 34.6566 70.5581 34.6566C67.231 34.6566 64.6836 32.5689 64.6836 29.0197C64.6836 25.4705 67.231 23.3828 70.5581 23.3828C72.3776 23.3828 74.0412 24.4266 74.769 25.5227V32.5167ZM82.8269 19.2073H87.8176V38.8321H82.8269V19.2073ZM157.376 18.6853C153.945 18.6853 152.333 20.7731 152.333 20.7731V9.76022H147.342V38.8321C147.342 38.8321 151.189 38.8321 151.553 38.8321C151.969 38.8321 152.281 38.4667 152.281 38.1014V37.2141C152.281 37.2141 153.893 39.354 157.324 39.354C162.99 39.354 167.409 34.9698 167.409 29.0197C167.409 23.0696 162.99 18.6853 157.376 18.6853ZM156.544 34.6044C154.62 34.6044 153.113 33.6127 152.333 32.4645V25.4705C153.113 24.4266 154.776 23.3306 156.544 23.3306C159.871 23.3306 162.418 25.4183 162.418 28.9675C162.418 32.5167 159.871 34.6044 156.544 34.6044ZM144.743 27.1929V38.8843H139.752V27.767C139.752 24.531 138.712 23.2262 135.905 23.2262C134.398 23.2262 132.838 24.0091 131.85 25.1574V38.8321H126.86V19.2073H130.811C131.226 19.2073 131.538 19.5726 131.538 19.938V20.7731C132.994 19.2595 134.917 18.6853 136.841 18.6853C139.024 18.6853 140.844 19.3117 142.3 20.5643C144.067 22.0257 144.743 23.9047 144.743 27.1929ZM114.747 18.6853C111.316 18.6853 109.704 20.7731 109.704 20.7731V9.76022H104.713V38.8321C104.713 38.8321 108.56 38.8321 108.924 38.8321C109.34 38.8321 109.652 38.4667 109.652 38.1014V37.2141C109.652 37.2141 111.264 39.354 114.695 39.354C120.361 39.354 124.78 34.9698 124.78 29.0197C124.832 23.0696 120.413 18.6853 114.747 18.6853ZM113.915 34.6044C111.991 34.6044 110.484 33.6127 109.704 32.4645V25.4705C110.484 24.4266 112.147 23.3306 113.915 23.3306C117.242 23.3306 119.789 25.4183 119.789 28.9675C119.789 32.5167 117.242 34.6044 113.915 34.6044ZM100.398 18.6853C101.906 18.6853 102.686 18.9463 102.686 18.9463V23.5915C102.686 23.5915 98.5269 22.1823 95.9276 25.1574V38.8843H90.9368V19.2073C90.9368 19.2073 94.7838 19.2073 95.1478 19.2073C95.5636 19.2073 95.8756 19.5726 95.8756 19.938V20.7731C96.8113 19.677 98.8388 18.6853 100.398 18.6853ZM48.5678 37.0575C48.3078 36.4312 48.0479 35.7527 47.788 35.1785C47.3721 34.2391 46.9562 33.3518 46.5923 32.5167L46.5403 32.4645C42.9532 24.6354 39.1062 16.702 35.0513 8.87293L34.8953 8.55976C34.4794 7.77686 34.0635 6.94176 33.6476 6.10666C33.1278 5.16718 32.6079 4.1755 31.7761 3.23601C30.1125 1.14826 27.7212 0 25.1738 0C22.5745 0 20.2351 1.14826 18.5195 3.13162C17.7397 4.07111 17.1679 5.06279 16.648 6.00227C16.2321 6.83737 15.8162 7.67247 15.4003 8.45538L15.2444 8.76854C11.2414 16.5976 7.34242 24.531 3.75535 32.3601L3.70336 32.4645C3.33946 33.2996 2.92356 34.1869 2.50767 35.1264C2.24774 35.7005 1.9878 36.3268 1.72787 37.0053C1.05205 38.9365 0.8441 40.7633 1.10403 42.6422C1.67589 46.5568 4.27521 49.845 7.86229 51.3064C9.21394 51.8805 10.6176 52.1415 12.0732 52.1415C12.4891 52.1415 13.009 52.0893 13.4249 52.0371C15.1404 51.8283 16.908 51.2542 18.6235 50.2625C20.755 49.0621 22.7824 47.3397 25.0698 44.8344C27.3573 47.3397 29.4367 49.0621 31.5162 50.2625C33.2317 51.2542 34.9993 51.8283 36.7148 52.0371C37.1307 52.0893 37.6506 52.1415 38.0665 52.1415C39.5221 52.1415 40.9777 51.8805 42.2774 51.3064C45.9165 49.845 48.4638 46.5046 49.0357 42.6422C49.4515 40.8155 49.2436 38.9887 48.5678 37.0575ZM25.1218 39.7716C22.3146 36.2224 20.495 32.882 19.8712 30.0636C19.6113 28.8631 19.5593 27.8192 19.7152 26.8797C19.8192 26.0447 20.1311 25.3139 20.547 24.6876C21.5348 23.2784 23.1983 22.3911 25.1218 22.3911C27.0453 22.3911 28.7609 23.2262 29.6967 24.6876C30.1125 25.3139 30.4245 26.0447 30.5284 26.8797C30.6844 27.8192 30.6324 28.9153 30.3725 30.0636C29.7486 32.8298 27.9291 36.1702 25.1218 39.7716ZM45.8645 42.2247C45.5006 44.9388 43.681 47.2875 41.1337 48.3314C39.886 48.8533 38.5344 49.0099 37.1827 48.8533C35.883 48.6967 34.5834 48.2792 33.2317 47.4963C31.3602 46.4524 29.4887 44.8344 27.3053 42.4335C30.7364 38.2058 32.8158 34.3434 33.5956 30.8987C33.9595 29.2807 34.0115 27.8192 33.8556 26.4622C33.6476 25.1574 33.1798 23.9569 32.4519 22.913C30.8404 20.5643 28.1371 19.2073 25.1218 19.2073C22.1066 19.2073 19.4033 20.6165 17.7917 22.913C17.0639 23.9569 16.596 25.1574 16.3881 26.4622C16.1801 27.8192 16.2321 29.3329 16.648 30.8987C17.4278 34.3434 19.5593 38.258 22.9384 42.4857C20.8069 44.8866 18.8834 46.5046 17.0119 47.5485C15.6603 48.3314 14.3606 48.7489 13.0609 48.9055C11.6573 49.0621 10.3057 48.8533 9.10997 48.3835C6.56262 47.3397 4.74309 44.991 4.37919 42.2769C4.22323 40.972 4.3272 39.6672 4.84707 38.2058C5.00303 37.6838 5.26296 37.1619 5.52289 36.5356C5.8868 35.7005 6.30269 34.8132 6.71858 33.9259L6.77057 33.8215C10.3576 26.0447 14.2046 18.1112 18.2076 10.3865L18.3636 10.0734C18.7795 9.29048 19.1954 8.45538 19.6113 7.67247C20.0271 6.83737 20.495 6.05447 21.0669 5.37595C22.1586 4.1233 23.6142 3.44478 25.2258 3.44478C26.8374 3.44478 28.293 4.1233 29.3847 5.37595C29.9566 6.05447 30.4245 6.83737 30.8404 7.67247C31.2562 8.45538 31.6721 9.29048 32.088 10.0734L32.244 10.3865C36.195 18.1634 40.042 26.0968 43.6291 33.8737V33.9259C44.0449 34.761 44.4089 35.7005 44.8247 36.5356C45.0847 37.1619 45.3446 37.6838 45.5006 38.2058C45.9165 39.5628 46.0724 40.8677 45.8645 42.2247Z" fill="#FF5A5F"/>
</svg>
