<svg width="142" height="43" viewBox="0 0 142 43" fill="none" xmlns="http://www.w3.org/2000/svg">
<path fill-rule="evenodd" clip-rule="evenodd" d="M87.8127 33.3188C79.5872 39.3745 67.6648 42.6054 57.3998 42.6054C43.0067 42.6054 30.0492 37.2882 20.2464 28.4447C19.4762 27.7492 20.1663 26.8015 21.0905 27.343C31.6697 33.4911 44.7504 37.1898 58.2624 37.1898C67.3752 37.1898 77.3998 35.3066 86.6173 31.3987C88.0098 30.8079 89.1743 32.3095 87.8127 33.3188Z" fill="#FF9900"/>
<path fill-rule="evenodd" clip-rule="evenodd" d="M91.2322 29.4109C90.1848 28.0693 84.2821 28.777 81.6327 29.0909C80.8256 29.1893 80.7024 28.4878 81.4294 27.9831C86.1306 24.6783 93.8447 25.6322 94.7442 26.74C95.6438 27.8539 94.5101 35.5774 90.0924 39.2638C89.4146 39.8299 88.7677 39.5284 89.0696 38.7776C90.0616 36.3036 92.2858 30.7587 91.2322 29.4109Z" fill="#FF9900"/>
<path fill-rule="evenodd" clip-rule="evenodd" d="M81.8176 4.65255V1.44006C81.8176 0.953882 82.1873 0.62771 82.6309 0.62771H97.0301C97.4922 0.62771 97.8619 0.960037 97.8619 1.44006V4.19099C97.8558 4.65255 97.4676 5.25566 96.7775 6.20956L89.316 16.8502C92.0887 16.7825 95.0153 17.1948 97.5292 18.6103C98.096 18.9303 98.2501 19.398 98.2932 19.8596V23.2874C98.2932 23.7552 97.7757 24.3029 97.2335 24.0198C92.8034 21.6997 86.9192 21.4473 82.0209 24.0444C81.5218 24.3152 80.9981 23.7736 80.9981 23.3059V20.0503C80.9981 19.5272 81.0042 18.6349 81.528 17.841L90.1725 5.45875H82.6494C82.1872 5.45875 81.8176 5.13258 81.8176 4.65255Z" fill="black"/>
<path fill-rule="evenodd" clip-rule="evenodd" d="M29.2914 24.6968H24.9106C24.4916 24.666 24.1589 24.3521 24.1281 23.9521V1.49548C24.1281 1.04623 24.5039 0.689281 24.9722 0.689281H29.0572C29.4824 0.707731 29.8213 1.03391 29.8521 1.44009V4.37564H29.9322C30.9981 1.53856 33.0006 0.215407 35.6993 0.215407C38.4411 0.215407 40.154 1.53856 41.3863 4.37564C42.446 1.53856 44.8551 0.215407 47.4368 0.215407C49.2729 0.215407 51.2815 0.972372 52.5076 2.67093C53.894 4.56026 53.6105 7.30503 53.6105 9.71132L53.6044 23.8844C53.6044 24.3337 53.2285 24.6968 52.7603 24.6968H48.3857C47.9482 24.666 47.597 24.3152 47.597 23.8844V11.9822C47.597 11.0345 47.6832 8.67126 47.4738 7.77275C47.1472 6.26498 46.1675 5.84034 44.8983 5.84034C43.8385 5.84034 42.7295 6.54807 42.2797 7.68044C41.8299 8.81281 41.873 10.7083 41.873 11.9822V23.8844C41.873 24.3337 41.4972 24.6968 41.0289 24.6968H36.6543C36.2107 24.666 35.8656 24.3152 35.8656 23.8844L35.8595 11.9822C35.8595 9.47746 36.2723 5.7911 33.1608 5.7911C30.0123 5.7911 30.1355 9.38515 30.1355 11.9822V23.8844C30.1355 24.3337 29.7596 24.6968 29.2914 24.6968Z" fill="black"/>
<path fill-rule="evenodd" clip-rule="evenodd" d="M110.259 0.215407C116.759 0.215407 120.277 5.7911 120.277 12.8807C120.277 19.7303 116.389 25.1645 110.259 25.1645C103.875 25.1645 100.4 19.5888 100.4 12.6407C100.4 5.64955 103.919 0.215407 110.259 0.215407ZM110.296 4.80028C107.067 4.80028 106.864 9.19437 106.864 11.933C106.864 14.6778 106.821 20.5365 110.259 20.5365C113.654 20.5365 113.814 15.8101 113.814 12.93C113.814 11.0345 113.734 8.76973 113.161 6.97271C112.668 5.40955 111.688 4.80028 110.296 4.80028Z" fill="black"/>
<path fill-rule="evenodd" clip-rule="evenodd" d="M128.706 24.6968H124.344C123.906 24.666 123.555 24.3152 123.555 23.8844L123.549 1.42163C123.586 1.0093 123.949 0.689281 124.393 0.689281H128.453C128.835 0.707731 129.15 0.96622 129.236 1.31701V4.75104H129.316C130.542 1.6801 132.261 0.215407 135.286 0.215407C137.252 0.215407 139.168 0.92314 140.4 2.86171C141.546 4.65873 141.546 7.68044 141.546 9.85286V23.989C141.497 24.3829 141.134 24.6968 140.702 24.6968H136.309C135.909 24.666 135.576 24.3706 135.533 23.989V11.7914C135.533 9.33592 135.816 5.74187 132.791 5.74187C131.725 5.74187 130.745 6.45576 130.259 7.53889C129.643 8.91128 129.562 10.2775 129.562 11.7914V23.8844C129.556 24.3337 129.174 24.6968 128.706 24.6968Z" fill="black"/>
<path fill-rule="evenodd" clip-rule="evenodd" d="M70.3388 13.97C70.3388 15.6747 70.382 17.0964 69.5194 18.6103C68.8231 19.8411 67.7141 20.5981 66.488 20.5981C64.8059 20.5981 63.8201 19.318 63.8201 17.4287C63.8201 13.6992 67.1657 13.0223 70.3388 13.0223V13.97ZM74.7566 24.6352C74.467 24.8937 74.048 24.9122 73.7215 24.7399C72.2674 23.5336 72.0024 22.9736 71.2076 21.8228C68.8046 24.2721 67.0979 25.0045 63.9864 25.0045C60.2957 25.0045 57.4306 22.7336 57.4306 18.1857C57.4306 14.6347 59.353 12.2161 62.101 11.0345C64.4793 9.98826 67.8003 9.80364 70.3388 9.51439V8.94821C70.3388 7.90815 70.4189 6.67731 69.8028 5.7788C69.2729 4.9726 68.2501 4.64027 67.3444 4.64027C65.6746 4.64027 64.1897 5.4957 63.8262 7.26811C63.7523 7.66198 63.4627 8.0497 63.0622 8.06816L58.817 7.61275C58.4596 7.53275 58.0591 7.24349 58.1639 6.69578C59.1374 1.55087 63.7954 1.0816e-05 67.9605 1.0816e-05C70.0924 1.0816e-05 72.8774 0.566198 74.5594 2.17859C76.6913 4.1664 76.488 6.81886 76.488 9.70517V16.524C76.488 18.5734 77.3382 19.4719 78.1392 20.5796C78.4165 20.9735 78.4781 21.4474 78.1207 21.7428C77.2273 22.4874 75.6377 23.8721 74.7627 24.6476L74.7566 24.6352Z" fill="black"/>
<path fill-rule="evenodd" clip-rule="evenodd" d="M12.9082 13.97C12.9082 15.6747 12.9513 17.0963 12.0887 18.6103C11.3925 19.8411 10.2896 20.5981 9.0573 20.5981C7.37523 20.5981 6.39556 19.318 6.39556 17.4287C6.39556 13.6992 9.74122 13.0223 12.9082 13.0223V13.97ZM17.3259 24.6352C17.0364 24.8937 16.6174 24.9122 16.2908 24.7399C14.8367 23.5336 14.5779 22.9736 13.777 21.8228C11.374 24.2721 9.67345 25.0045 6.55576 25.0045C2.87122 25.0045 0 22.7336 0 18.1856C0 14.6347 1.92853 12.2161 4.67036 11.0345C7.04867 9.98825 10.3697 9.80363 12.9082 9.51438V8.9482C12.9082 7.90814 12.9883 6.6773 12.3783 5.77879C11.8423 4.97259 10.8195 4.64026 9.9199 4.64026C8.25016 4.64026 6.75909 5.49569 6.39556 7.2681C6.32162 7.66197 6.03204 8.04969 5.63771 8.06815L1.38632 7.61273C1.02896 7.53273 0.634626 7.24348 0.733209 6.69576C1.71288 1.55086 6.36475 0 10.5299 0C12.6617 0 15.4467 0.566187 17.1288 2.17858C19.2606 4.16639 19.0573 6.81884 19.0573 9.70516V16.524C19.0573 18.5734 19.9076 19.4719 20.7086 20.5796C20.992 20.9735 21.0536 21.4474 20.6962 21.7428C19.8028 22.4874 18.2132 23.8721 17.3383 24.6475L17.3259 24.6352Z" fill="black"/>
</svg>
