<svg width="68" height="68" viewBox="0 0 68 68" fill="none" xmlns="http://www.w3.org/2000/svg">
<path d="M28.1734 52.9616H16.4876C15.2234 52.9616 14.1751 51.9133 14.1751 50.6491V34.8624C14.1751 31.6558 16.7959 29.0346 20.0026 29.0346H28.1734C29.4376 29.0346 30.4859 30.083 30.4859 31.3471V50.618C30.4859 51.913 29.4376 52.9616 28.1734 52.9616ZM18.8001 48.3366H25.8609V33.6908H20.0026C19.3551 33.6908 18.8001 34.2146 18.8001 34.893V48.3366Z" fill="#00DA71"/>
<path d="M39.8263 52.9616H28.1404C26.8763 52.9616 25.828 51.9133 25.828 50.6491V20.8638C25.828 17.6572 28.4488 15.0363 31.6554 15.0363H36.3421C39.5488 15.0363 42.1696 17.6572 42.1696 20.8638V50.6491C42.1388 51.9133 41.1213 52.9616 39.8263 52.9616ZM37.5446 48.3366V20.8638C37.5446 20.2163 37.0204 19.6613 36.3421 19.6613H31.6554C31.0079 19.6613 30.4529 20.1855 30.4529 20.8638V48.3366H37.5446Z" fill="#00DA71"/>
<path d="M51.5152 52.9616H39.8293C38.5652 52.9616 37.5168 51.9133 37.5168 50.6491V36.6196C37.5168 35.3555 38.5652 34.3071 39.8293 34.3071H48.0002C51.2068 34.3071 53.8277 36.928 53.8277 40.1346V50.6491C53.8277 51.9133 52.8102 52.9616 51.5152 52.9616ZM42.1418 48.3366H49.2027V40.1346C49.2027 39.4871 48.6785 38.9321 48.0002 38.9321H42.1418V48.3366Z" fill="#00DA71"/>
<path d="M43.25 67.1459H24.75C8.00749 67.1459 0.854156 59.9925 0.854156 43.25V24.75C0.854156 8.00752 8.00749 0.854187 24.75 0.854187H43.25C59.9925 0.854187 67.1458 8.00752 67.1458 24.75V43.25C67.1458 59.9925 59.9925 67.1459 43.25 67.1459ZM24.75 5.47919C10.5358 5.47919 5.47916 10.5359 5.47916 24.75V43.25C5.47916 57.4642 10.5358 62.5209 24.75 62.5209H43.25C57.4642 62.5209 62.5208 57.4642 62.5208 43.25V24.75C62.5208 10.5359 57.4642 5.47919 43.25 5.47919H24.75Z" fill="#00DA71"/>
</svg>
