<svg width="68" height="68" viewBox="0 0 68 68" fill="none" xmlns="http://www.w3.org/2000/svg">
<path d="M24.7529 51.7289C24.4137 51.7289 24.0437 51.6364 23.7354 51.4822C21.3612 50.2797 19.3262 48.4914 17.8462 46.2714C16.6129 44.4214 16.6129 42.0472 17.8462 40.1972C19.3262 37.9772 21.3612 36.1889 23.7354 35.0172C24.8762 34.4314 26.2637 34.9247 26.8496 36.0655C27.4354 37.2064 26.9729 38.5939 25.8012 39.1797C24.1362 40.0122 22.7179 41.2764 21.7004 42.818C21.5154 43.0955 21.5154 43.4655 21.7004 43.7739C22.7179 45.3155 24.1362 46.5797 25.8012 47.4122C26.9421 47.998 27.4046 49.3855 26.8496 50.5264C26.4179 51.2664 25.5854 51.7289 24.7529 51.7289Z" fill="#FF007A"/>
<path d="M43.895 51.7289C43.0317 51.7289 42.23 51.2664 41.8292 50.4647C41.2434 49.3239 41.7059 47.9364 42.8775 47.3505C44.5425 46.518 45.9609 45.2539 46.9784 43.7122C47.1634 43.4347 47.1634 43.0647 46.9784 42.7564C45.9609 41.2147 44.5425 39.9505 42.8775 39.118C41.7367 38.5322 41.2742 37.1447 41.8292 36.0039C42.415 34.863 43.8025 34.4005 44.9434 34.9555C47.3175 36.158 49.3525 37.9464 50.8325 40.1664C52.0659 42.0164 52.0659 44.3905 50.8325 46.2405C49.3525 48.4605 47.3175 50.2489 44.9434 51.4205C44.5734 51.6364 44.2342 51.7289 43.895 51.7289Z" fill="#FF007A"/>
<path d="M43.25 67.1459H24.75C8.0075 67.1459 0.854164 59.9925 0.854164 43.25V24.75C0.854164 8.00752 8.0075 0.854187 24.75 0.854187H43.25C59.9925 0.854187 67.1458 8.00752 67.1458 24.75V43.25C67.1458 59.9925 59.9925 67.1459 43.25 67.1459ZM24.75 5.47919C10.5358 5.47919 5.47916 10.5359 5.47916 24.75V43.25C5.47916 57.4642 10.5358 62.5209 24.75 62.5209H43.25C57.4642 62.5209 62.5208 57.4642 62.5208 43.25V24.75C62.5208 10.5359 57.4642 5.47919 43.25 5.47919H24.75Z" fill="#FF007A"/>
<path d="M3.87728 24.01C2.61311 24.01 1.56478 22.9617 1.56478 21.6975C1.56478 20.4334 2.58228 19.385 3.87728 19.385L63.139 19.3542C64.4032 19.3542 65.4515 20.4025 65.4515 21.6667C65.4515 22.9309 64.434 23.9792 63.139 23.9792L3.87728 24.01Z" fill="#FF007A"/>
</svg>
