<svg width="69" height="68" viewBox="0 0 69 68" fill="none" xmlns="http://www.w3.org/2000/svg">
<path d="M31.9981 38.008C31.5973 38.008 31.1965 37.9155 30.8265 37.6997L3.60053 21.9439C2.49053 21.2964 2.12047 19.878 2.76797 18.768C3.41547 17.658 4.80297 17.2879 5.9438 17.9354L31.9981 33.0131L57.8978 18.028C59.0078 17.3805 60.4262 17.7814 61.0737 18.8605C61.7212 19.9705 61.3206 21.3888 60.2415 22.0363L33.2006 37.6997C32.7998 37.8847 32.399 38.008 31.9981 38.008Z" fill="#2639ED"/>
<path d="M32 65.9433C30.7358 65.9433 29.6875 64.895 29.6875 63.6308V35.665C29.6875 34.4008 30.7358 33.3525 32 33.3525C33.2642 33.3525 34.3125 34.4008 34.3125 35.665V63.6308C34.3125 64.895 33.2642 65.9433 32 65.9433Z" fill="#2639ED"/>
<path d="M31.9966 67.1464C29.1908 67.1464 26.5083 66.4989 24.4733 65.3581L8.00828 56.2318C3.53745 53.7651 0.0224762 47.8139 0.0224762 42.6956V25.244C0.0224762 20.1256 3.53745 14.2058 8.00828 11.7083L24.4733 2.58154C28.6666 0.238202 35.2649 0.238202 39.4891 2.58154L55.9541 11.7083C60.4249 14.175 63.9399 20.1256 63.9399 25.244V36.5289C63.9399 37.7931 62.8916 38.8414 61.6274 38.8414C60.3633 38.8414 59.3149 37.7931 59.3149 36.5289V25.244C59.3149 21.8523 56.6941 17.4125 53.7341 15.7783L37.2691 6.65157C34.4633 5.07907 29.5608 5.07907 26.7549 6.65157L10.2899 15.7783C7.29908 17.4433 4.70911 21.8523 4.70911 25.244V42.6956C4.70911 46.0873 7.32991 50.5276 10.2899 52.1618L26.7549 61.2881C29.4683 62.7989 34.5866 62.7989 37.2691 61.2881C38.3791 60.6714 39.7974 61.0726 40.4141 62.1826C41.0308 63.2926 40.6299 64.7106 39.5199 65.3273C37.4849 66.4989 34.8024 67.1464 31.9966 67.1464Z" fill="#2639ED"/>
<path d="M54.2 65.2958C47.4783 65.2958 42.0208 59.8383 42.0208 53.1167C42.0208 46.395 47.4783 40.9375 54.2 40.9375C60.9217 40.9375 66.3792 46.395 66.3792 53.1167C66.3792 59.8383 60.9217 65.2958 54.2 65.2958ZM54.2 45.5625C50.0375 45.5625 46.6458 48.9542 46.6458 53.1167C46.6458 57.2792 50.0375 60.6708 54.2 60.6708C58.3625 60.6708 61.7542 57.2792 61.7542 53.1167C61.7542 48.9542 58.3625 45.5625 54.2 45.5625Z" fill="#2639ED"/>
<path d="M65.9151 67.1458C65.3293 67.1458 64.7435 66.93 64.281 66.4675L61.1976 63.3842C60.3035 62.49 60.3035 61.0097 61.1976 60.1155C62.0918 59.2214 63.5718 59.2214 64.466 60.1155L67.5493 63.1989C68.4435 64.093 68.4435 65.5733 67.5493 66.4675C67.0868 66.93 66.501 67.1458 65.9151 67.1458Z" fill="#2639ED"/>
</svg>
