<svg width="184" height="16" viewBox="0 0 184 16" fill="none" xmlns="http://www.w3.org/2000/svg">
<path d="M16 8C16 12.4183 12.4183 16 8 16C3.58172 16 0 12.4183 0 8C0 3.58172 3.58172 0 8 0C12.4183 0 16 3.58172 16 8Z" fill="#2639ED"/>
<path d="M58 8C58 12.4183 54.4183 16 50 16C45.5817 16 42 12.4183 42 8C42 3.58172 45.5817 0 50 0C54.4183 0 58 3.58172 58 8Z" fill="#E7F0FC"/>
<path d="M100 8C100 12.4183 96.4183 16 92 16C87.5817 16 84 12.4183 84 8C84 3.58172 87.5817 0 92 0C96.4183 0 100 3.58172 100 8Z" fill="#E7F0FC"/>
<path d="M142 8C142 12.4183 138.418 16 134 16C129.582 16 126 12.4183 126 8C126 3.58172 129.582 0 134 0C138.418 0 142 3.58172 142 8Z" fill="#E7F0FC"/>
<path d="M184 8C184 12.4183 180.418 16 176 16C171.582 16 168 12.4183 168 8C168 3.58172 171.582 0 176 0C180.418 0 184 3.58172 184 8Z" fill="#E7F0FC"/>
</svg>
