<svg width="67" height="68" viewBox="0 0 67 68" fill="none" xmlns="http://www.w3.org/2000/svg">
<path d="M49.6983 67.1459H14.3017C6.62418 67.1459 0.395844 60.9175 0.395844 53.24V32.4892C0.395844 24.8117 6.62418 18.5833 14.3017 18.5833H49.6983C57.3758 18.5833 63.6042 24.8117 63.6042 32.4892V36.9292C63.6042 38.1933 62.5558 39.2417 61.2917 39.2417H55.0633C53.9842 39.2417 52.9975 39.6425 52.2883 40.3825L52.2575 40.4133C51.3942 41.2458 50.9933 42.3867 51.0858 43.5583C51.2708 45.5933 53.2133 47.2275 55.4333 47.2275H61.2917C62.5558 47.2275 63.6042 48.2759 63.6042 49.54V53.2092C63.6042 60.9175 57.3758 67.1459 49.6983 67.1459ZM14.3017 23.2083C9.18334 23.2083 5.02084 27.3709 5.02084 32.4892V53.24C5.02084 58.3583 9.18334 62.5209 14.3017 62.5209H49.6983C54.8167 62.5209 58.9792 58.3583 58.9792 53.24V51.8833H55.4333C50.7775 51.8833 46.8308 48.43 46.4608 43.99C46.2142 41.4617 47.1392 38.9642 48.9892 37.145C50.5925 35.5108 52.7508 34.6167 55.0633 34.6167H58.9792V32.4892C58.9792 27.3709 54.8167 23.2083 49.6983 23.2083H14.3017Z" fill="#FF9900"/>
<path d="M2.70834 37.5767C1.44418 37.5767 0.395844 36.5284 0.395844 35.2642V21.1735C0.395844 16.5794 3.29418 12.4167 7.58001 10.7825L32.0617 1.53255C34.59 0.576712 37.3958 0.916002 39.585 2.45767C41.805 3.99934 43.1 6.49684 43.1 9.17934V20.8959C43.1 22.1601 42.0517 23.2084 40.7875 23.2084C39.5233 23.2084 38.475 22.1601 38.475 20.8959V9.17934C38.475 8.00767 37.92 6.92844 36.9333 6.25011C35.9467 5.57177 34.775 5.41761 33.665 5.84927L9.18334 15.0993C6.68584 16.0551 4.99001 18.491 4.99001 21.1735V35.2642C5.02084 36.5592 3.97251 37.5767 2.70834 37.5767Z" fill="#FF9900"/>
<path d="M55.4349 51.884C50.7791 51.884 46.8324 48.4306 46.4624 43.9906C46.2157 41.4315 47.1407 38.934 48.9907 37.1148C50.5632 35.5115 52.7216 34.6173 55.0341 34.6173H61.4474C64.4999 34.7098 66.8432 37.1148 66.8432 40.0748V46.4265C66.8432 49.3865 64.4999 51.7915 61.5399 51.884H55.4349ZM61.3857 39.2423H55.0649C53.9857 39.2423 52.9991 39.6431 52.2899 40.3831C51.3957 41.2465 50.9641 42.4181 51.0874 43.5898C51.2724 45.6248 53.2149 47.259 55.4349 47.259H61.4782C61.8791 47.259 62.2491 46.889 62.2491 46.4265V40.0748C62.2491 39.6123 61.8791 39.2731 61.3857 39.2423Z" fill="#FF9900"/>
<path d="M38.1667 36.3125H16.5833C15.3192 36.3125 14.2708 35.2642 14.2708 34C14.2708 32.7358 15.3192 31.6875 16.5833 31.6875H38.1667C39.4308 31.6875 40.4792 32.7358 40.4792 34C40.4792 35.2642 39.4308 36.3125 38.1667 36.3125Z" fill="#FF9900"/>
</svg>
